<svg id="Layer_5" enable-background="new 0 0 64 64" height="512" viewBox="0 0 64 64" width="512" xmlns="http://www.w3.org/2000/svg"><g><path d="m53 41c0-.732.212-1.409.556-2h-1.556c-2.785 0-5.189 1.639-6.315 4h7.315z"/><path d="m45 49h8v2h-8z"/><path d="m53 45h-7.92c-.047.328-.08.66-.08 1v1h8z"/><path d="m45 31h3c.551 0 1-.448 1-1v-4c0-.552-.449-1-1-1h-3z"/><path d="m47 9v9.082c.619-.36 1.29-.635 2-.819v-9.263c0-1.654-1.346-3-3-3h-7v2h6c1.103 0 2 .897 2 2z"/><path d="m36.358 55.519-.74 1.481h-1.618c-.598 0-1 .507-1 1.262v1.757c0 .541.438.981.977.981h5.023v-4.586l-1.14-1.14c-.429-.427-1.228-.298-1.502.245z"/><path d="m16 9h20c.551 0 1-.448 1-1v-4c0-.552-.449-1-1-1h-20c-.551 0-1 .448-1 1v4c0 .552.449 1 1 1zm17-4h2v2h-2zm-4 0h2v2h-2zm-4 0h2v2h-2zm-4 0h2v2h-2zm-4 0h2v2h-2z"/><path d="m13 7v-2h-7c-1.654 0-3 1.346-3 3v48c0 1.302.839 2.402 2 2.816v-49.816c0-1.103.897-2 2-2z"/><path d="m43 46c0-3.193 1.676-5.996 4.19-7.594-2.464-1.085-4.19-3.546-4.19-6.406v-7c0-2.021.759-3.864 2-5.274v-10.726h-6.184c-.414 1.161-1.514 2-2.816 2h-20c-1.302 0-2.402-.839-2.816-2h-6.184v50h24v-.738c0-1.86 1.29-3.262 3-3.262h.382l.188-.376c.502-1.002 1.508-1.624 2.627-1.624.785 0 1.522.306 2.077.86l1.14 1.14h2.586zm-18.414-33.586c.756.756 2.072.756 2.828 0l1.414 1.414c-.755.756-1.76 1.172-2.828 1.172s-2.073-.416-2.828-1.172zm-2.829 2.829c2.34 2.34 6.146 2.34 8.485 0l1.414 1.414c-1.56 1.56-3.608 2.34-5.657 2.34s-4.097-.78-5.657-2.34zm-4.757 21.335v6.422c0 1.105-.895 2-2 2s-2-.895-2-2v-6.422c-1.764-.772-3-2.529-3-4.578 0-2.761 2.239-5 5-5s5 2.239 5 5c0 2.049-1.236 3.806-3 4.578zm9-13.584c-3.073 0-6.146-1.169-8.485-3.509l1.414-1.414c3.899 3.898 10.243 3.898 14.143 0l1.414 1.414c-2.34 2.34-5.413 3.509-8.486 3.509z"/><path d="m41 57h4v4h-4z"/><path d="m57 39c-1.103 0-2 .897-2 2v4h4v-4c0-1.103-.897-2-2-2z"/><path d="m53 19h-2c-2.607 0-4.824 1.673-5.65 4h2.65c1.654 0 3 1.346 3 3v4c0 1.654-1.346 3-3 3h-2.899c.465 2.279 2.484 4 4.899 4h1c3.309 0 6-2.691 6-6v-4.586c0-1.179.459-2.287 1.292-3.121l1.415 1.414c-.456.456-.707 1.063-.707 1.707v4.586c1.103 0 2-.897 2-2v-2c0-4.411-3.589-8-8-8z"/><path d="m55 51v2.376l4.001 1.96v-4.336z"/><path d="m55 47h4v2h-4z"/><path d="m51 57v4.001h3.884c.079 0 .155-.018.233-.023l-2.652-3.978z"/><path d="m47 57h2v4.001h-2z"/><path d="m54.449 56.371 2.649 3.973c.249-.161.487-.343.702-.559.638-.637 1.016-1.415 1.143-2.25l-4.033-1.975c-.09.307-.247.584-.461.811z"/><path d="m45 53h8v2h-8z"/></g></svg>